# xmcd
#
# Track frame offsets: 
#        150
#        29287
#        42503
#        55897
#        68402
#        81149
#        91264
#        102148
#        110702
#        132679
#        150214
#        159568
#        171541
#        184933
#        200839
#
# Disc length: 2830 seconds
#
# Revision: 1
# Processed by: cddbd v1.5.1PL2 Copyright (c) Steve Scherf et al.
# Submitted via: ExactAudioCopy v0.95b3
#
DISCID=cd0b0c0f
DTITLE=Duke Ellington - Greatest Hits
DYEAR=2001
DGENRE=Jazz
TTITLE0=Happy Go Lucky Local
TTITLE1=Take A Train
TTITLE2=Jam A Ditty
TTITLE3=Far Away Blues
TTITLE4=Perdido
TTITLE5=On The Alamo
TTITLE6=Cross Town
TTITLE7=Tea For Two
TTITLE8=Everything Goes
TTITLE9=I Can´T Belive That You Are In Love With Me
TTITLE10=Tip Top Topic
TTITLE11=Saint Louis Blues
TTITLE12=9:20 Especial
TTITLE13=Just You, Just Me
TTITLE14=How High The Moon
EXTD=
EXTT0=
EXTT1=
EXTT2=
EXTT3=
EXTT4=
EXTT5=
EXTT6=
EXTT7=
EXTT8=
EXTT9=
EXTT10=
EXTT11=
EXTT12=
EXTT13=
EXTT14=
PLAYORDER=
